<?xml version="1.0" encoding="UTF-8"?>
<!DOCTYPE svg PUBLIC "-//W3C//DTD SVG 1.1//EN" "http://www.w3.org/Graphics/SVG/1.1/DTD/svg11.dtd">
<!-- Creator: CorelDRAW -->
<svg xmlns="http://www.w3.org/2000/svg" xml:space="preserve" width="2.83333in" height="2.83333in" version="1.1" style="shape-rendering:geometricPrecision; text-rendering:geometricPrecision; image-rendering:optimizeQuality; fill-rule:evenodd; clip-rule:evenodd"
viewBox="0 0 2833 2833"
 xmlns:xlink="http://www.w3.org/1999/xlink">
 <defs>
  <style type="text/css">
   <![CDATA[
    .fil1 {fill:#FDFDFD}
    .fil0 {fill:#FFBE00}
   ]]>
  </style>
 </defs>
 <g id="Layer_x0020_1">
  <metadata id="CorelCorpID_0Corel-Layer"/>
  <circle class="fil0" cx="1417" cy="1417" r="1417"/>
  <g id="_612861528">
   <path class="fil1" d="M1109 1916c-53,0 -100,-12 -141,-31l5 -6c28,-27 28,-71 0,-99 -27,-27 -71,-27 -99,0 -5,6 -11,12 -17,18 -1,-2 -2,-3 -3,-5 -69,-86 -99,-207 -84,-330 17,-133 85,-254 192,-341 7,-6 16,-7 24,-4 8,3 13,10 14,19 9,66 38,111 61,137 18,-146 70,-258 158,-340 85,-79 200,-130 364,-160 363,-72 538,-205 540,-206 5,-4 12,-6 19,-4 6,1 12,5 15,11 56,102 75,224 55,354 -15,98 -46,165 -47,168 -61,128 -184,219 -358,264 -77,20 -148,26 -193,28 36,28 96,51 136,62 6,2 12,6 15,13 3,6 3,13 0,19 -81,182 -232,202 -396,208 49,28 89,37 89,37 9,2 16,8 18,17 2,9 -1,18 -8,24 -137,105 -258,147 -359,147zm755 -709c-8,0 -15,-4 -20,-11 -7,-10 -4,-25 7,-32 122,-82 171,-190 190,-266 3,-13 16,-20 28,-17 13,3 20,15 17,28 -21,84 -74,204 -209,294 -4,2 -9,4 -13,4z"/>
   <path class="fil1" d="M637 2270c-3,0 -6,-1 -9,-2 -12,-4 -18,-18 -13,-30 58,-146 156,-289 292,-425 9,-9 24,-9 33,0 9,9 9,24 0,33 -131,132 -226,269 -281,409 -4,9 -13,15 -22,15z"/>
  </g>
 </g>
</svg>
